<mxfile host="www.draw.io" modified="2019-11-23T05:27:33.875Z" agent="Mozilla/5.0 (X11; Linux x86_64) AppleWebKit/537.36 (KHTML, like Gecko) Ubuntu Chromium/78.0.3904.97 Chrome/78.0.3904.97 Safari/537.36" etag="Yg9IHRPAREdWibEi3cuk" version="12.2.9" type="github" pages="1">
  <diagram id="Bw5xsWEdGbu48Ygzj_-n" name="Page-1">
    <mxGraphModel dx="1355" dy="1915" grid="1" gridSize="10" guides="1" tooltips="1" connect="1" arrows="1" fold="1" page="1" pageScale="1" pageWidth="827" pageHeight="1169" math="0" shadow="0">
      <root>
        <mxCell id="0"/>
        <mxCell id="1" parent="0"/>
        <mxCell id="bjBqQtMSp6dqoQxwANr6-1" value="Actor" style="shape=umlActor;verticalLabelPosition=bottom;labelBackgroundColor=#ffffff;verticalAlign=top;html=1;outlineConnect=0;" parent="1" vertex="1">
          <mxGeometry x="50" y="190" width="30" height="60" as="geometry"/>
        </mxCell>
        <mxCell id="bjBqQtMSp6dqoQxwANr6-2" value="login" style="ellipse;whiteSpace=wrap;html=1;" parent="1" vertex="1">
          <mxGeometry x="250" y="-120" width="120" height="80" as="geometry"/>
        </mxCell>
        <mxCell id="bjBqQtMSp6dqoQxwANr6-3" value="" style="endArrow=none;html=1;entryX=0;entryY=0.65;entryDx=0;entryDy=0;entryPerimeter=0;exitX=1;exitY=0.3333333333333333;exitDx=0;exitDy=0;exitPerimeter=0;" parent="1" source="bjBqQtMSp6dqoQxwANr6-1" target="bjBqQtMSp6dqoQxwANr6-2" edge="1">
          <mxGeometry width="50" height="50" relative="1" as="geometry">
            <mxPoint x="50" y="380" as="sourcePoint"/>
            <mxPoint x="100" y="330" as="targetPoint"/>
          </mxGeometry>
        </mxCell>
        <mxCell id="bjBqQtMSp6dqoQxwANr6-4" value="manage the review" style="ellipse;whiteSpace=wrap;html=1;" parent="1" vertex="1">
          <mxGeometry x="250" y="220" width="120" height="80" as="geometry"/>
        </mxCell>
        <mxCell id="bjBqQtMSp6dqoQxwANr6-5" value="" style="endArrow=none;html=1;exitX=0;exitY=0.5;exitDx=0;exitDy=0;" parent="1" source="bjBqQtMSp6dqoQxwANr6-4" edge="1">
          <mxGeometry width="50" height="50" relative="1" as="geometry">
            <mxPoint x="50" y="480" as="sourcePoint"/>
            <mxPoint x="65" y="220" as="targetPoint"/>
          </mxGeometry>
        </mxCell>
        <mxCell id="bjBqQtMSp6dqoQxwANr6-10" value="list the review" style="ellipse;whiteSpace=wrap;html=1;" parent="1" vertex="1">
          <mxGeometry x="473" y="210" width="120" height="80" as="geometry"/>
        </mxCell>
        <mxCell id="bjBqQtMSp6dqoQxwANr6-12" value="update the review" style="ellipse;whiteSpace=wrap;html=1;" parent="1" vertex="1">
          <mxGeometry x="473" y="290" width="120" height="80" as="geometry"/>
        </mxCell>
        <mxCell id="bjBqQtMSp6dqoQxwANr6-16" value="search the recipe" style="ellipse;whiteSpace=wrap;html=1;" parent="1" vertex="1">
          <mxGeometry x="240" y="-10" width="120" height="80" as="geometry"/>
        </mxCell>
        <mxCell id="bjBqQtMSp6dqoQxwANr6-17" value="" style="endArrow=none;html=1;entryX=0.5;entryY=0.5;entryDx=0;entryDy=0;entryPerimeter=0;exitX=0;exitY=0.5;exitDx=0;exitDy=0;" parent="1" source="bjBqQtMSp6dqoQxwANr6-16" target="bjBqQtMSp6dqoQxwANr6-1" edge="1">
          <mxGeometry width="50" height="50" relative="1" as="geometry">
            <mxPoint x="50" y="670" as="sourcePoint"/>
            <mxPoint x="100" y="620" as="targetPoint"/>
          </mxGeometry>
        </mxCell>
        <mxCell id="bjBqQtMSp6dqoQxwANr6-18" value="save the recipe" style="ellipse;whiteSpace=wrap;html=1;" parent="1" vertex="1">
          <mxGeometry x="260" y="530" width="120" height="80" as="geometry"/>
        </mxCell>
        <mxCell id="bjBqQtMSp6dqoQxwANr6-19" value="" style="endArrow=none;html=1;exitX=0;exitY=0;exitDx=0;exitDy=0;entryX=0.5;entryY=0.5;entryDx=0;entryDy=0;entryPerimeter=0;" parent="1" source="bjBqQtMSp6dqoQxwANr6-18" target="bjBqQtMSp6dqoQxwANr6-1" edge="1">
          <mxGeometry width="50" height="50" relative="1" as="geometry">
            <mxPoint x="50" y="670" as="sourcePoint"/>
            <mxPoint x="50" y="280" as="targetPoint"/>
          </mxGeometry>
        </mxCell>
        <mxCell id="bjBqQtMSp6dqoQxwANr6-20" value="create the recipe" style="ellipse;whiteSpace=wrap;html=1;" parent="1" vertex="1">
          <mxGeometry x="250" y="420" width="120" height="80" as="geometry"/>
        </mxCell>
        <mxCell id="bjBqQtMSp6dqoQxwANr6-21" value="" style="endArrow=none;html=1;entryX=0.017;entryY=0.425;entryDx=0;entryDy=0;entryPerimeter=0;exitX=0.5;exitY=0.5;exitDx=0;exitDy=0;exitPerimeter=0;" parent="1" source="bjBqQtMSp6dqoQxwANr6-1" target="bjBqQtMSp6dqoQxwANr6-20" edge="1">
          <mxGeometry width="50" height="50" relative="1" as="geometry">
            <mxPoint x="70" y="230" as="sourcePoint"/>
            <mxPoint x="100" y="710" as="targetPoint"/>
          </mxGeometry>
        </mxCell>
        <mxCell id="bjBqQtMSp6dqoQxwANr6-25" value="view information of the recipe" style="ellipse;whiteSpace=wrap;html=1;" parent="1" vertex="1">
          <mxGeometry x="480" y="40" width="120" height="80" as="geometry"/>
        </mxCell>
        <mxCell id="bjBqQtMSp6dqoQxwANr6-26" value="" style="endArrow=none;dashed=1;html=1;exitX=0.917;exitY=0.75;exitDx=0;exitDy=0;exitPerimeter=0;" parent="1" source="bjBqQtMSp6dqoQxwANr6-16" target="bjBqQtMSp6dqoQxwANr6-25" edge="1">
          <mxGeometry width="50" height="50" relative="1" as="geometry">
            <mxPoint x="380" y="160" as="sourcePoint"/>
            <mxPoint x="100" y="710" as="targetPoint"/>
          </mxGeometry>
        </mxCell>
        <mxCell id="bjBqQtMSp6dqoQxwANr6-37" value="extend" style="text;html=1;align=center;verticalAlign=middle;resizable=0;points=[];;labelBackgroundColor=#ffffff;" parent="bjBqQtMSp6dqoQxwANr6-26" vertex="1" connectable="0">
          <mxGeometry x="0.164" y="3" relative="1" as="geometry">
            <mxPoint as="offset"/>
          </mxGeometry>
        </mxCell>
        <mxCell id="bjBqQtMSp6dqoQxwANr6-27" value="" style="endArrow=none;dashed=1;html=1;entryX=1;entryY=0.425;entryDx=0;entryDy=0;entryPerimeter=0;" parent="1" source="bjBqQtMSp6dqoQxwANr6-33" target="bjBqQtMSp6dqoQxwANr6-16" edge="1">
          <mxGeometry width="50" height="50" relative="1" as="geometry">
            <mxPoint x="430" y="220" as="sourcePoint"/>
            <mxPoint x="100" y="710" as="targetPoint"/>
          </mxGeometry>
        </mxCell>
        <mxCell id="bjBqQtMSp6dqoQxwANr6-28" value="view other&#39;s review and rate" style="ellipse;whiteSpace=wrap;html=1;" parent="1" vertex="1">
          <mxGeometry x="473" y="-50" width="120" height="80" as="geometry"/>
        </mxCell>
        <mxCell id="bjBqQtMSp6dqoQxwANr6-29" value="write the review of the recipe and rate" style="ellipse;whiteSpace=wrap;html=1;" parent="1" vertex="1">
          <mxGeometry x="473" y="530" width="120" height="80" as="geometry"/>
        </mxCell>
        <mxCell id="bjBqQtMSp6dqoQxwANr6-31" value="make a weekly meal plan" style="ellipse;whiteSpace=wrap;html=1;" parent="1" vertex="1">
          <mxGeometry x="250" y="325" width="120" height="80" as="geometry"/>
        </mxCell>
        <mxCell id="bjBqQtMSp6dqoQxwANr6-32" value="" style="endArrow=none;html=1;exitX=0;exitY=0.5;exitDx=0;exitDy=0;" parent="1" source="bjBqQtMSp6dqoQxwANr6-31" edge="1">
          <mxGeometry width="50" height="50" relative="1" as="geometry">
            <mxPoint x="50" y="800" as="sourcePoint"/>
            <mxPoint x="70" y="230" as="targetPoint"/>
          </mxGeometry>
        </mxCell>
        <mxCell id="bjBqQtMSp6dqoQxwANr6-33" value="extend" style="text;html=1;align=center;verticalAlign=middle;resizable=0;points=[];;autosize=1;" parent="1" vertex="1">
          <mxGeometry x="400" width="50" height="20" as="geometry"/>
        </mxCell>
        <mxCell id="bjBqQtMSp6dqoQxwANr6-34" value="" style="endArrow=none;dashed=1;html=1;entryX=1;entryY=0.425;entryDx=0;entryDy=0;entryPerimeter=0;" parent="1" source="bjBqQtMSp6dqoQxwANr6-28" target="bjBqQtMSp6dqoQxwANr6-33" edge="1">
          <mxGeometry width="50" height="50" relative="1" as="geometry">
            <mxPoint x="460.66381882790233" y="55.93361811720979" as="sourcePoint"/>
            <mxPoint x="380" y="64" as="targetPoint"/>
          </mxGeometry>
        </mxCell>
        <mxCell id="bjBqQtMSp6dqoQxwANr6-40" value="" style="endArrow=none;dashed=1;html=1;entryX=0.992;entryY=0.425;entryDx=0;entryDy=0;entryPerimeter=0;exitX=0;exitY=0.5;exitDx=0;exitDy=0;" parent="1" source="bjBqQtMSp6dqoQxwANr6-10" target="bjBqQtMSp6dqoQxwANr6-4" edge="1">
          <mxGeometry width="50" height="50" relative="1" as="geometry">
            <mxPoint x="50" y="760" as="sourcePoint"/>
            <mxPoint x="100" y="710" as="targetPoint"/>
          </mxGeometry>
        </mxCell>
        <mxCell id="bjBqQtMSp6dqoQxwANr6-45" value="extend" style="text;html=1;align=center;verticalAlign=middle;resizable=0;points=[];;labelBackgroundColor=#ffffff;" parent="bjBqQtMSp6dqoQxwANr6-40" vertex="1" connectable="0">
          <mxGeometry x="-0.017" relative="1" as="geometry">
            <mxPoint as="offset"/>
          </mxGeometry>
        </mxCell>
        <mxCell id="bjBqQtMSp6dqoQxwANr6-41" value="" style="endArrow=none;dashed=1;html=1;entryX=1;entryY=0.613;entryDx=0;entryDy=0;entryPerimeter=0;" parent="1" source="bjBqQtMSp6dqoQxwANr6-12" target="bjBqQtMSp6dqoQxwANr6-4" edge="1">
          <mxGeometry width="50" height="50" relative="1" as="geometry">
            <mxPoint x="483" y="260" as="sourcePoint"/>
            <mxPoint x="379.03999999999996" y="294" as="targetPoint"/>
          </mxGeometry>
        </mxCell>
        <mxCell id="bjBqQtMSp6dqoQxwANr6-44" value="extend" style="text;html=1;align=center;verticalAlign=middle;resizable=0;points=[];;labelBackgroundColor=#ffffff;" parent="bjBqQtMSp6dqoQxwANr6-41" vertex="1" connectable="0">
          <mxGeometry x="-0.1099" y="-3" relative="1" as="geometry">
            <mxPoint as="offset"/>
          </mxGeometry>
        </mxCell>
        <mxCell id="bjBqQtMSp6dqoQxwANr6-52" value="extend" style="endArrow=none;dashed=1;html=1;entryX=1;entryY=0.613;entryDx=0;entryDy=0;entryPerimeter=0;" parent="1" source="bjBqQtMSp6dqoQxwANr6-29" target="bjBqQtMSp6dqoQxwANr6-18" edge="1">
          <mxGeometry width="50" height="50" relative="1" as="geometry">
            <mxPoint x="50" y="760" as="sourcePoint"/>
            <mxPoint x="100" y="710" as="targetPoint"/>
          </mxGeometry>
        </mxCell>
        <mxCell id="bjBqQtMSp6dqoQxwANr6-53" value="manage the saved recipe" style="ellipse;whiteSpace=wrap;html=1;" parent="1" vertex="1">
          <mxGeometry x="250" y="620" width="120" height="80" as="geometry"/>
        </mxCell>
        <mxCell id="bjBqQtMSp6dqoQxwANr6-54" value="" style="endArrow=none;html=1;exitX=0;exitY=0.35;exitDx=0;exitDy=0;exitPerimeter=0;" parent="1" source="bjBqQtMSp6dqoQxwANr6-53" target="bjBqQtMSp6dqoQxwANr6-1" edge="1">
          <mxGeometry width="50" height="50" relative="1" as="geometry">
            <mxPoint x="50" y="770" as="sourcePoint"/>
            <mxPoint x="100" y="720" as="targetPoint"/>
          </mxGeometry>
        </mxCell>
        <mxCell id="bjBqQtMSp6dqoQxwANr6-55" value="" style="endArrow=none;dashed=1;html=1;entryX=1;entryY=0.5;entryDx=0;entryDy=0;exitX=0;exitY=0.388;exitDx=0;exitDy=0;exitPerimeter=0;" parent="1" source="bjBqQtMSp6dqoQxwANr6-56" target="bjBqQtMSp6dqoQxwANr6-53" edge="1">
          <mxGeometry width="50" height="50" relative="1" as="geometry">
            <mxPoint x="450" y="660" as="sourcePoint"/>
            <mxPoint x="100" y="720" as="targetPoint"/>
          </mxGeometry>
        </mxCell>
        <mxCell id="bjBqQtMSp6dqoQxwANr6-61" value="extend" style="text;html=1;align=center;verticalAlign=middle;resizable=0;points=[];;labelBackgroundColor=#ffffff;" parent="bjBqQtMSp6dqoQxwANr6-55" vertex="1" connectable="0">
          <mxGeometry x="0.1205" y="-2" relative="1" as="geometry">
            <mxPoint as="offset"/>
          </mxGeometry>
        </mxCell>
        <mxCell id="bjBqQtMSp6dqoQxwANr6-56" value="list the saved recipe" style="ellipse;whiteSpace=wrap;html=1;" parent="1" vertex="1">
          <mxGeometry x="470" y="630" width="120" height="80" as="geometry"/>
        </mxCell>
        <mxCell id="bjBqQtMSp6dqoQxwANr6-57" value="delete the saved recipe" style="ellipse;whiteSpace=wrap;html=1;" parent="1" vertex="1">
          <mxGeometry x="460" y="720" width="120" height="80" as="geometry"/>
        </mxCell>
        <mxCell id="bjBqQtMSp6dqoQxwANr6-60" value="" style="endArrow=none;dashed=1;html=1;entryX=1;entryY=1;entryDx=0;entryDy=0;exitX=0;exitY=0.5;exitDx=0;exitDy=0;" parent="1" source="bjBqQtMSp6dqoQxwANr6-57" target="bjBqQtMSp6dqoQxwANr6-53" edge="1">
          <mxGeometry width="50" height="50" relative="1" as="geometry">
            <mxPoint x="50" y="870" as="sourcePoint"/>
            <mxPoint x="100" y="820" as="targetPoint"/>
          </mxGeometry>
        </mxCell>
        <mxCell id="bjBqQtMSp6dqoQxwANr6-62" value="extend" style="text;html=1;align=center;verticalAlign=middle;resizable=0;points=[];;labelBackgroundColor=#ffffff;" parent="bjBqQtMSp6dqoQxwANr6-60" vertex="1" connectable="0">
          <mxGeometry x="-0.0432" y="-1" relative="1" as="geometry">
            <mxPoint as="offset"/>
          </mxGeometry>
        </mxCell>
      </root>
    </mxGraphModel>
  </diagram>
</mxfile>
